<?xml version="1.0" encoding="UTF-8" standalone="no"?>
<!-- Created with Inkscape (http://www.inkscape.org/) -->

<svg
   width="210mm"
   height="297mm"
   viewBox="0 0 210 297"
   version="1.1"
   id="svg887"
   inkscape:version="1.1.2 (0a00cf5339, 2022-02-04)"
   sodipodi:docname="survivors.svg"
   xmlns:inkscape="http://www.inkscape.org/namespaces/inkscape"
   xmlns:sodipodi="http://sodipodi.sourceforge.net/DTD/sodipodi-0.dtd"
   xmlns="http://www.w3.org/2000/svg"
   xmlns:svg="http://www.w3.org/2000/svg">
  <sodipodi:namedview
     id="namedview889"
     pagecolor="#ffffff"
     bordercolor="#666666"
     borderopacity="1.0"
     inkscape:pageshadow="2"
     inkscape:pageopacity="0.0"
     inkscape:pagecheckerboard="0"
     inkscape:document-units="mm"
     showgrid="false"
     inkscape:zoom="0.77771465"
     inkscape:cx="396.67505"
     inkscape:cy="561.25984"
     inkscape:window-width="2490"
     inkscape:window-height="1376"
     inkscape:window-x="0"
     inkscape:window-y="0"
     inkscape:window-maximized="1"
     inkscape:current-layer="text8576" />
  <defs
     id="defs884" />
  <g
     inkscape:label="Layer 1"
     inkscape:groupmode="layer"
     id="layer1">
    <g
       aria-label="Survivors"
       transform="matrix(0.90809838,-0.39979398,0.39072085,0.92918584,0,0)"
       id="text8576"
       style="font-size:41.0004px;line-height:125%;font-family:'Bloody Terror';-inkscape-font-specification:'Bloody Terror, Normal';letter-spacing:0px;word-spacing:0px;fill:#800000;stroke-width:0.264583px">
      <path
         d="m -5.347432,125.41522 q 1.4214006,-0.04 1.5214992,-2.58255 0,-0.78077 -0.2602564,-1.76173 -0.9209074,-3.42338 -0.9209074,-5.92584 0.02002,-1.7217 0.2602564,-3.00296 0.2001973,-1.12111 1.2412231,-5.24517 0.2602564,-0.42041 0.6806707,-1.18116 0.440434,-0.74073 0.9809666,-1.5215 1.32130196,-1.9219 2.12209103,-1.9219 0.36035509,0 0.62061154,0.52052 0.28027613,0.54053 0.30029593,1.78175 0,2.20217 -1.64161763,8.76864 -0.34033536,1.30128 -0.34033536,2.10207 0,1.04103 0.38037481,1.54152 0.40039454,0.52051 0.90088771,0.52051 0.54053267,-0.02 0.94092717,-0.56055 0.4204143,-0.52051 0.4204143,-1.6216 0,-0.44043 -0.1000987,-0.94092 -0.2001972,-1.40138 -0.2001972,-2.66263 0,-2.60256 0.3803748,-6.74664 0.3803748,-4.14409 1.0610455,-7.887777 0.5405326,-1.481459 0.6806707,-3.042998 l 0.040039,-0.120118 h -0.02002 q 0.04004,-0.480474 0.04004,-0.940928 -0.02002,-2.482446 -0.7807694,-4.704635 -0.7407299,-2.24221 -2.52248555,-4.40434 -1.32130197,-1.561539 -2.96291955,-2.9429 -1.6416176,-1.381361 -3.443393,-2.682644 -2.642604,-1.841814 -4.6445763,-3.66361 -1.181164,-1.161144 -1.681657,-2.242209 -0.480474,-1.081065 -0.520513,-2.22219 0,-1.841815 1.44142,-3.042998 0.100099,0.240237 0.100099,0.400394 l 0.02002,0.160158 q -0.04004,0.520513 -0.08008,0.600592 -0.02002,0.08008 -0.100099,0.520513 0,0.280276 0.08008,0.380375 0.08008,0.100098 0.160158,0.100098 0.140138,-0.02002 0.180177,-0.08008 0.04004,-0.08008 0.06006,-0.220217 -0.06006,-0.260256 -0.120118,-0.420414 -0.06006,-0.180177 -0.06006,-0.400394 0,-0.200198 0.04004,-0.360355 l 0.240237,-0.660651 q 0.02002,-0.04004 0.02002,-0.100099 0.02002,-0.140138 0.160158,-0.380375 l 0.360355,-0.180177 q 0.180177,0.260256 0.180177,1.000986 0,0.500493 -0.04004,1.221203 -0.02002,0.08008 -0.140138,1.381361 -0.240237,2.021993 -0.280276,2.522486 -0.02002,0.480473 -0.04004,1.061046 0,1.101084 0.480474,1.101084 0.3603544,-0.02002 0.4204136,-0.600591 l 0.02002,-0.960947 q -0.040039,-0.560553 -0.1201183,-1.121105 -0.1401381,-0.900888 -0.1401381,-2.062032 0,-0.70069 0.080079,-1.401381 0.080079,-0.72071 0.3803748,-1.761736 0.02002,0 0.060059,-0.02002 0.060059,-0.02002 0.1201184,-0.02002 0.1601578,0.04004 0.2001972,0.240237 0.060059,0.08008 0.060059,0.240236 0,0.340336 -0.1201184,0.940928 l -0.060059,0.460453 q 0,0.380375 0.3002959,0.380375 0.1601578,-0.04004 0.2001972,-0.300296 0,-0.180177 -0.1000986,-0.380375 -0.080079,-0.220217 -0.080079,-0.440434 0,-0.280276 0.040039,-0.420414 0.04004,-0.140138 0.1201184,-0.300296 0.080079,-0.160158 0.1801775,-0.520513 0,-0.06006 0.060059,-0.180177 0.060059,-0.120119 0.1401381,-0.220217 0.1000987,-0.100099 0.1801776,-0.100099 0.2402367,0.140138 0.2802761,1.181164 0,1.141124 -0.2402367,2.9429 -0.220217,1.701677 -0.2802762,3.123077 0,0.640631 0.1601579,0.880868 0.1801775,0.220217 0.3403353,0.220217 0.2602565,-0.02002 0.3403354,-0.300296 0.080079,-0.280276 0.1000986,-0.800789 -0.040039,-0.940927 -0.1401381,-1.621598 -0.1401381,-0.760749 -0.1401381,-2.042012 0,-0.780769 0.1000987,-1.46144 0.1000986,-0.680671 0.360355,-1.681657 l 0.2001973,0.360355 q 0.1601578,0.220217 0.2001973,0.460454 0.040039,0.220217 0.060059,0.440434 0,0.360355 0.140138,0.540533 l -0.02002,0.340335 q 0,0.160158 0.1201184,0.160158 0.080079,-0.02002 0.1401381,-0.04004 0.080079,-0.04004 0.2001972,-0.04004 0.1201184,0.02002 0.1601578,0.08008 0.040039,0.06006 0.080079,0.160158 0.040039,0.08008 0.040039,0.240236 0,0.380375 -0.1401381,1.081065 l -0.040039,0.220217 q 0,0.460454 0.2602564,0.460454 0.1201184,0 0.1601578,-0.04004 0.060059,-0.06006 0.080079,-0.240237 0,-0.200197 -0.080079,-0.460454 -0.080079,-0.280276 -0.1000986,-0.440434 0.04004,-0.420414 0.1801775,-0.72071 0.1401381,-0.300296 0.1601579,-0.460454 0,-0.04004 0.060059,-0.160157 0.1601578,-0.320316 0.3203157,-0.320316 0.2402367,0 0.2802761,1.181164 0,1.121105 -0.2402367,2.882841 -0.2001973,1.681657 -0.2802762,3.183136 0,1.081065 0.4804735,1.081065 0.2802762,-0.02002 0.3603551,-0.260256 0.080079,-0.240237 0.1000986,-0.820809 -0.02002,-0.70069 -0.1201184,-1.561539 -0.1601578,-1.361341 -0.1601578,-2.14211 0,-0.960947 0.1401381,-1.701677 0.2602565,-1.301282 0.5605524,-2.382348 v -0.06006 l 0.02002,-0.02002 q 0.060059,0.04004 0.060059,0.220217 l -0.040039,0.500494 q 0,0.540532 0.3603551,0.540532 0.1801775,0 0.4204143,-0.100098 0.2402367,-0.100099 0.4604537,-0.100099 0.2602564,0 0.3803748,0.08008 0.1401381,0.06006 0.2802762,0.200197 l 0.02002,0.02002 q 0.2402367,0.360355 0.3203156,0.660651 0.1000987,0.300296 0.1000987,0.780769 0,0.700691 -0.080079,1.221204 -0.080079,0.500493 -0.1801776,1.000986 -0.1801775,0.76075 -0.3203156,1.961933 0,0.540533 0.2602564,0.820809 0.2802762,0.280276 0.5805721,0.280276 0.3803748,-0.02002 0.52051291,-0.200197 0.16015781,-0.180178 0.20019726,-0.660651 0,-0.460454 -0.26025645,-1.081065 -0.24023672,-0.640632 -0.28027622,-1.181164 -0.02002,-0.260257 -0.02002,-0.540533 0,-0.580572 0.32031565,-1.581558 0.0200197,-0.04004 0.0400395,-0.100099 0.0200197,-0.08008 0.0600592,-0.08008 0.0400394,0 0.0800789,0.100099 0.0400395,0.08008 0.0800789,0.200197 0.0600592,0.120118 0.12011836,0.240237 0.0600592,0.100098 0.12011836,0.100098 0.0800789,0 0.18017754,-0.260256 0.12011836,-0.280276 0.14013809,-0.580572 0.04003946,-0.200197 0.220217,-0.560552 0.18017754,-0.360356 0.42041426,-0.660651 0.26025645,-0.320316 0.56055244,-0.320316 0.6806707,0.08008 0.8608482,2.822781 -0.02002,-0.02002 -0.02002,-0.02002 0,-0.02002 -0.02002,-0.02002 -0.080079,0 -0.1801776,1.46144 -0.080079,1.241223 -0.2802762,2.9429 l -0.5205129,3.943886 q -0.0800789,0.620612 -0.0800789,1.161144 0,1.50148 0.4604538,2.20217 0.4804734,0.700691 1.0410258,0.700691 1.2212033,-0.04004 1.3413216,-2.162131 0,-0.820809 -0.4604537,-2.722683 -0.580572,-2.282249 -0.580572,-4.144083 0.02002,-1.661638 0.2402367,-2.862821 0.2402367,-1.201184 0.7006904,-2.92288 0.4604537,-1.741717 0.4804735,-1.821795 L 4.3621355,66.076746 Q 4.622392,65.07576 4.622392,64.875563 q 0,-0.08008 0,-0.100099 0.02002,-0.04004 0.1000986,-0.200197 0,-0.04004 -0.02002,-0.06006 -1.6215979,-1.801776 -3.7036495,-3.243196 -2.0620319,-1.46144 -4.4643991,-2.322288 -2.3823475,-0.880868 -4.9448725,-0.880868 -3.5635115,0 -6.6265295,1.901874 -2.662623,1.681657 -4.224162,4.40434 -1.541519,2.722683 -1.541519,5.885799 0.04004,2.662624 1.121105,5.16509 1.101085,2.502466 3.563511,4.904833 2.482446,2.282249 5.205129,4.184123 l 0.9809663,0.72071 q 2.1621304,1.421401 3.8237678,3.163117 1.6616373,1.721696 1.8618346,4.344281 0,1.881854 -1.3012823,3.363314 -1.3613414,1.44142 -3.0229787,1.44142 -1.8618347,0 -3.4433927,-1.221203 -1.581558,-1.201184 -2.322288,-2.882841 l -7.32722,3.103058 q 1.561538,3.62357 4.684616,6.00592 0.04004,0.48047 0.160158,0.62061 l 0.02002,0.0801 -0.04004,0.42041 q 0,0.16016 0.04004,0.18018 0.06006,0.04 0.120119,0.04 0.140138,0 0.240236,-0.04 0.100099,-0.04 0.260257,-0.0801 0.200197,0.0601 0.260256,0.22022 0.08008,0.18018 0.120119,0.46045 -0.02002,0.48048 -0.06006,0.68067 -0.02002,0.2002 -0.06006,0.34034 -0.02002,0.14014 -0.06006,0.36035 -0.04004,0.22022 -0.08008,0.62062 0,0.26025 0.140138,0.36035 0.140138,0.12012 0.280276,0.12012 0.140138,-0.02 0.200198,-0.12012 0.06006,-0.0801 0.08008,-0.28028 0,-0.22021 -0.140139,-0.56055 -0.120118,-0.32031 -0.120118,-0.60059 0,-0.34034 0.04004,-0.54053 0.06006,-0.18018 0.160157,-0.42042 0.100099,-0.22021 0.260257,-0.66065 0.580572,0.32032 0.940927,0.48048 0,1.86183 -0.340335,4.50443 -0.260257,2.36233 -0.360355,4.28423 0,1.58155 0.68067,1.58155 0.380375,-0.02 0.500493,-0.40039 0.120119,-0.36036 0.120119,-1.1211 -0.06006,-1.32131 -0.180178,-2.30227 -0.200197,-1.04103 -0.200197,-2.8428 0,-1.44143 0.320316,-3.08304 0.08008,0.52051 0.360355,0.9209 0.280276,0.4004 0.800789,0.92091 0.06006,0.0601 0.06006,0.18018 -0.06006,0.34034 -0.08008,0.42041 0,0.1001 -0.02002,0.14014 0,0.0601 0,0.14014 0,0.0801 -0.02002,0.26026 v 0.1001 q 0,0.60059 0.320315,0.60059 0.280276,0 0.640631,-0.16016 0.380375,-0.14014 0.720711,-0.14014 0.520513,0 0.780769,0.82081 0.1201181,0.3003 0.1401378,0.54053 0.040039,0.26026 0.060059,0.58057 0,1.06105 -0.080079,1.54152 -0.060059,0.48048 -0.1801778,0.96095 -0.160158,0.64063 -0.360355,1.94191 -0.04004,0.24024 -0.04004,0.44044 0,0.62061 0.320316,0.92091 0.320316,0.32031 0.6406316,0.32031 0.4204142,-0.02 0.5805721,-0.26026 0.1801775,-0.24023 0.220217,-0.72071 0,-0.52051 -0.3002959,-1.30128 -0.3403354,-1.021 -0.3403354,-1.72169 0,-0.64064 0.1401381,-1.20119 0.1601578,-0.54053 0.4204142,-1.28126 l 0.4003946,-1.18116 q 0.2001973,-0.32032 0.2802762,-0.80079 0.02002,-0.2002 0.220217,-0.62061 0.2001972,-0.4004 0.5004931,-0.76075 0.3002959,-0.36036 0.6206116,-0.36036 0.5004931,0.0801 0.7407298,1.3213 0.2602565,1.24123 0.2602565,2.88284 0,1.84182 -0.2402367,3.88383 -0.220217,2.06203 -0.5805721,4.60454 l -0.2802762,2.00197 q -0.080079,0.74073 -0.080079,1.34132 0,1.70168 0.5405326,2.48245 0.5605524,0.80079 1.1611442,0.80079 z"
         id="path27286" />
      <path
         d="m 27.244684,126.69648 q 1.061046,-0.0801 1.141124,-2.56253 0,-0.78077 -0.200197,-1.78175 -0.70069,-3.62357 -0.70069,-6.32624 0.02002,-1.30128 0.200197,-2.56252 0.240237,-1.64162 0.74073,-4.24418 0.240237,-1.28126 0.320316,-1.70168 0.08008,-0.40039 0.180177,-0.94093 0.100099,-0.52051 0.160158,-0.94092 h 0.120118 q 0,-0.64063 0.02002,-0.70069 0,-0.04 -0.02002,-0.0601 V 75.526058 h -7.987871 v 20.420121 q -0.140138,0.380375 -0.660651,0.76075 -1.501479,1.101085 -3.343294,1.101085 -1.141125,0 -2.062032,-0.520513 -0.920907,-0.500494 -1.321302,-1.921894 -0.400394,-1.401381 -0.540533,-3.983926 -0.140138,-2.582545 -0.140138,-5.605523 0,-2.882841 0.06006,-5.665583 l 0.02002,-4.584517 -7.9478313,0.06006 -0.04004,4.504438 q -0.040039,1.961934 -0.040039,5.345267 0,3.403354 0.1801775,6.726629 0.2001973,3.303254 0.9008877,5.725641 0.4604537,1.50148 1.2212034,3.022977 0.7807693,1.54152 1.46144,2.7427 l 0.4804735,0.88087 q 0.1601578,0.3003 0.4204142,0.70069 1.121105,1.68166 1.46144,3.22318 0.220217,1.04102 0.220217,2.12209 0,0.84083 -0.120118,1.74172 -0.120119,0.76075 -0.480474,2.16213 -0.160157,0.70069 -0.160157,1.2212 0.100098,1.60158 0.980966,1.6216 0.440434,0 0.78077,-0.54054 0.340335,-0.52051 0.340335,-1.60157 0,-0.4004 -0.06006,-0.86085 l -0.500493,-3.92387 q -0.220217,-1.82179 -0.220217,-3.16312 0,-0.44043 0.06006,-1.04102 0.02002,-0.36036 0.160158,-0.86085 0.08008,-0.34033 0.200197,-0.48047 0.400394,0.18017 0.800789,0.30029 0.240237,0.38038 0.400394,1.04103 0.180178,0.68067 0.180178,1.10108 0,0.70069 -0.300296,1.50148 -0.120118,0.3003 -0.120118,0.54054 0.06006,0.40039 0.160158,0.52051 0.120118,0.14014 0.380374,0.14014 0.220217,0 0.420415,-0.22022 0.200197,-0.2002 0.200197,-0.60059 0,-0.18018 -0.300296,-1.78176 -0.06006,-0.40039 -0.06006,-0.68067 0,-0.70069 0.540532,-0.70069 0.320316,0 0.720711,0.1001 0.06006,0.26026 0.460453,0.36036 0.120119,0.04 0.120119,0.06 0,0.04 0.02002,0.04 l -0.08008,0.48048 q 0,0.24023 0.220217,0.24023 0.180178,0 0.380375,-0.0601 0.200198,-0.04 0.380375,-0.0601 0.300296,0.0601 0.400395,0.24023 0.120118,0.2002 0.160157,0.5005 0,0.62061 -0.180177,1.30128 l -0.140138,0.62061 q -0.04004,0.12012 -0.06006,0.26026 0,0.32031 0.200197,0.44043 0.200197,0.14014 0.420414,0.14014 0.220217,-0.02 0.300296,-0.14014 0.08008,-0.1001 0.100099,-0.28028 0,-0.26025 -0.180178,-0.64063 -0.180177,-0.38037 -0.180177,-0.68067 0,-0.30029 0.100098,-0.58057 0.120119,-0.34034 0.460454,-1.00099 0.08008,-0.1001 0.120118,-0.24023 0.04004,-0.28028 0.320316,-0.56056 0.220217,-0.30029 0.460454,-0.30029 0.560552,0.02 0.620611,1.70168 -0.06006,1.28126 -0.160158,2.00197 l -0.480473,2.66262 q -0.06006,0.32032 -0.06006,0.58057 0,0.70069 0.300296,1.04103 0.320315,0.36035 0.70069,0.36035 0.800789,-0.02 0.860848,-1.06104 0,-0.60059 -0.320315,-1.40138 -0.360355,-1.08107 -0.360355,-2.14211 0.06006,-0.98097 0.460453,-2.16213 0.04004,0.30029 0.08008,0.52051 0.06006,0.22022 0.160158,0.22022 0.100099,0 0.320316,-0.32032 0.100098,-0.12012 0.180177,-0.22022 0.08008,-0.10009 0.140138,-0.10009 0.04004,0.02 0.06006,0.04 0.04004,0.04 0.04004,0.16016 0,0.12012 -0.04004,0.32032 -0.02002,0.22022 -0.06006,0.76075 0,0.36035 0.08008,0.48047 0.08008,0.12012 0.220217,0.12012 0.180178,0 0.440434,-0.14014 0.260257,-0.14014 0.520513,-0.14014 0.260257,0 0.380375,0.26026 0.140138,0.26026 0.220217,0.54053 0.100099,0.3003 0.120118,0.56055 0.02002,0.28028 0.02002,0.66066 0,1.38136 -0.420414,4.02396 -0.06006,0.48047 -0.06006,0.76075 0,0.62061 0.220217,0.92091 0.220217,0.32031 0.500493,0.32031 0.560552,-0.02 0.600592,-1.00098 0,-0.52052 -0.240237,-1.28127 -0.240237,-1.08106 -0.240237,-1.68165 0,-1.06105 0.280276,-2.06203 l 0.440434,-1.6216 q 0.140138,-0.34034 0.200198,-0.82081 0.02002,-0.22022 0.160157,-0.64063 0.160158,-0.4004 0.380375,-0.76075 0.240237,-0.34034 0.460454,-0.34034 0.380375,0.0601 0.560552,1.26125 0.200197,1.20118 0.200197,2.80276 0,1.90187 -0.220217,4.38432 l -0.220217,2.24221 -0.200197,2.08205 q -0.260256,2.60256 -0.260256,3.26321 0,1.68166 0.420414,2.48245 0.420414,0.80079 0.880868,0.80079 z"
         id="path27288" />
      <path
         d="m 36.714016,119.78967 q 0.940927,-0.12011 1.041026,-1.74171 0,-0.52052 -0.200197,-1.20119 -0.72071,-2.50246 -0.72071,-4.32426 0.04004,-1.04102 0.240236,-1.98195 0.220217,-0.94093 0.600592,-2.24221 l 0.400395,-1.38136 0.360355,-1.28126 h 0.100098 v -0.54054 l 0.08008,-0.14013 q 0,-0.04 -0.08008,-0.0601 v -4.34428 q 0.460454,0 0.820809,-0.38038 0.380375,-0.380374 0.420415,-1.301281 0,-0.640631 -0.420415,-2.22219 -0.220217,-0.74073 -0.340335,-1.381361 -0.04004,-0.380375 -0.08008,-0.560552 l -0.04004,-0.420414 q 0,-0.420415 -0.02002,-0.700691 0.02002,-1.101085 0.200197,-1.981953 0.180178,-0.900888 0.520513,-2.18215 l 0.520513,-1.781756 q 0,0.72071 -0.06006,1.161144 -0.06006,0.420415 -0.200198,1.021007 -0.240236,0.960946 -0.240236,1.281262 0,0.420414 0.240236,0.640631 0.240237,0.220217 0.500494,0.220217 0.300296,-0.02002 0.420414,-0.180177 0.140138,-0.180178 0.180177,-0.500493 0,-0.180178 -0.08008,-0.420415 -0.08008,-0.240236 -0.160158,-0.480473 -0.08008,-0.240237 -0.160158,-0.440434 -0.06006,-0.220217 -0.08008,-0.400395 0,-0.200197 0,-0.420414 0,-0.340335 0.100099,-0.660651 0.120118,-0.420414 0.620611,-1.721696 0.160158,-0.220217 0.220217,-0.540533 0.02002,-0.160158 0.160158,-0.440434 0.160158,-0.280276 0.380375,-0.520513 0.240236,-0.240237 0.460453,-0.240237 0.380375,0.06006 0.580573,0.880868 0.200197,0.820809 0.200197,1.881855 0,1.301282 -0.200197,2.802761 -0.180178,1.50148 -0.480474,3.343295 l -0.160158,1.121104 -0.02002,0.120119 q -0.06006,0.420414 -0.06006,0.800789 0,1.141124 0.420415,1.681657 0.440434,0.540533 0.920907,0.540533 1.061046,-0.04004 1.141125,-1.741717 0,-0.660651 -0.420415,-2.18215 -0.500493,-1.641617 -0.500493,-3.343294 0.04004,-0.860848 0.220217,-1.681657 0.06006,-0.300296 0.520513,-2.162131 0.300296,-0.800789 1.861835,-2.90286 l 0.04004,0.260256 q 0,0.360355 -0.02002,0.560553 0,0.200197 -0.120118,0.960947 l -0.02002,0.08008 q -0.340335,1.681657 -0.340335,1.861835 0,0.440434 0.240237,0.660651 0.260256,0.200197 0.500493,0.200197 0.320315,-0.02002 0.440434,-0.180177 0.120118,-0.180178 0.160158,-0.500493 0,-0.180178 -0.08008,-0.420415 L 46.94409,86.737067 q -0.100099,-0.460454 -0.100099,-0.840829 0,-0.280276 0.06006,-0.500493 0.180178,-0.820809 0.460454,-0.820809 0.04004,-0.02002 0.06006,-0.02002 0.04004,-0.02002 0.06006,-0.06006 0.100099,-0.160158 0.140138,-0.360355 0.06006,-0.320316 0.440434,-0.920907 0.400395,-0.460454 0.640632,-0.460454 0.600592,0 0.760749,1.961933 0,0.280276 0.06006,0.400395 l 0.02002,0.160158 q -0.06006,0.920907 -0.220217,2.462426 l -0.200197,1.401381 q -0.460454,2.762722 -0.460454,3.543491 0,1.161145 0.400395,1.721697 0.420414,0.540533 0.920907,0.540533 1.061046,-0.04004 1.141125,-1.781756 0,-0.520513 -0.200198,-1.161144 -0.300296,-1.021006 -0.440434,-1.581559 -0.140138,-0.580572 -0.200197,-1.081065 -0.04004,-0.520513 -0.06006,-1.361341 0.02002,-1.081066 0.120118,-1.681657 0.100099,-0.600592 0.360355,-1.50148 0.520513,-2.122091 0.800789,-2.862821 l 0.240237,-0.820809 q 0.160158,-0.600591 0.160158,-0.880868 l 0.08008,-0.06006 -0.02002,-0.04004 0.02002,-0.04004 q 0,-0.04004 -0.100099,-0.06006 -1.701677,-2.322288 -4.204142,-3.483432 -2.482446,-1.161145 -5.285208,-1.161145 -1.921894,0 -3.863808,0.560553 V 75.526058 H 30.56796 v 29.629192 q -0.140138,0.32032 -0.140138,0.62061 0,0.6006 0.700691,1.26125 0.04004,0.04 0.04004,0.1001 0,0.12011 -0.04004,0.26025 -0.02002,0.16016 -0.06006,0.48048 0,0.40039 0.260257,0.40039 0.240237,0 0.500493,-0.1001 0.260256,-0.0801 0.540533,-0.0801 0.380374,0 0.540532,0.36036 0.160158,0.38037 0.180178,0.80079 l 0.02002,0.32031 q 0,0.80079 -0.340336,2.18215 l -0.140138,0.68067 -0.02002,0.28028 q 0,0.84083 0.720711,0.86085 0.300295,0 0.420414,-0.16016 0.140138,-0.14014 0.200197,-0.52051 0,-0.18018 -0.08008,-0.42042 -0.08008,-0.24023 -0.160158,-0.50049 -0.260256,-0.72071 -0.260256,-1.1211 0,-0.42042 0.100098,-0.80079 0.120119,-0.36036 0.320316,-0.84083 l 0.320316,-0.86085 q 0.160158,-0.22022 0.200197,-0.54053 0.02002,-0.16016 0.180178,-0.44044 0.160157,-0.26025 0.380374,-0.50049 0.240237,-0.24024 0.460454,-0.24024 0.74073,0.0601 0.780769,2.62259 0,1.3213 -0.140138,2.40236 -0.120118,1.10109 -0.380374,2.82279 -0.400395,2.62258 -0.400395,3.08303 0,1.10109 0.400395,1.66164 0.420414,0.56055 0.940927,0.56055 z"
         id="path27290" />
      <path
         d="m 67.84469,119.78967 q 0.920908,-0.12011 1.021006,-1.74171 0,-0.52052 -0.200197,-1.20119 -0.70069,-2.48244 -0.70069,-4.32426 0.02002,-0.86085 0.220217,-1.74171 0.300296,-1.50148 1.081065,-4.16411 0.360355,-1.28126 0.360355,-1.46144 0,-0.0601 0.08008,-0.20019 l -0.02002,-0.04 3.823768,-11.511346 5.84576,-17.837577 -8.348226,-0.02002 -5.325247,16.095861 -5.345267,-16.11588 h -0.380375 q 0,-0.06006 -0.02002,-0.100099 -0.160157,-0.280276 -3.243195,-0.280276 -1.161145,0 -2.342308,0.06006 -1.161145,0.04004 -1.941914,0.140138 -0.780769,0.08008 -0.780769,0.180178 v 0.02002 q 0.220217,0.520513 0.480473,1.581559 0.260257,1.061045 0.480474,2.18215 0.220217,1.121105 0.340335,1.821795 0.220217,1.101085 0.220217,2.22219 0,1.881854 -0.800789,4.824754 -0.220217,0.840828 -0.220217,1.46144 0.120118,1.861835 1.121105,1.861835 0.840828,0 1.281262,-1.601579 0.220217,1.041026 0.520513,1.46144 0.04004,0.06006 0.04004,0.160158 l -0.08008,0.980967 q 0,0.540533 0.300295,0.540533 0.180178,0 0.460454,-0.120119 0.280276,-0.140138 0.520513,-0.140138 0.260257,0 0.380375,0.240237 0.140138,0.240237 0.220217,0.520513 0.100098,0.260256 0.120118,0.520513 0.02002,0.240236 0.02002,0.600591 0,0.680671 -0.100099,1.401381 l -0.260256,1.881855 q -0.140138,0.820808 -0.140138,1.061045 0,0.580572 0.240236,0.860848 0.240237,0.300293 0.500494,0.300293 0.320315,-0.02 0.440434,-0.220214 0.120118,-0.200197 0.160157,-0.68067 0,-0.480474 -0.220217,-1.141125 -0.260256,-0.900888 -0.260256,-1.621598 0,-0.920907 0.180178,-1.4214 0.180177,-0.480474 0.300295,-0.500494 0.100099,2.322289 0.400395,4.584518 0.320316,2.282243 0.820809,3.042993 0.04004,0.0601 0.04004,0.14014 0,0.12012 -0.04004,0.3003 -0.02002,0.20019 -0.06006,0.68067 0,0.36035 0.08008,0.46045 0.100098,0.1001 0.240236,0.1001 0.180178,0 0.440434,-0.14014 0.260257,-0.12012 0.520513,-0.12012 0.140138,0 0.260257,0.0601 0.300295,0.38038 0.380374,0.84083 0.100099,0.46046 0.120119,1.08107 0,0.90088 -0.440434,3.60355 -0.06006,0.44043 -0.06006,0.66065 0,0.62061 0.220217,0.88087 0.240236,0.26025 0.500493,0.26025 0.320315,-0.02 0.440434,-0.22021 0.140138,-0.2002 0.180177,-0.68067 0,-0.48048 -0.220217,-1.14113 -0.240236,-0.92091 -0.280276,-1.6216 0,-0.48047 0.08008,-0.96094 0.100099,-0.48048 0.200197,-0.70069 v 0.0801 q 0,0.62062 0.660651,1.26125 0.04004,0.04 0.04004,0.14014 0,0.10009 -0.04004,0.24023 -0.02002,0.16016 -0.04004,0.48048 0,0.38037 0.300296,0.38037 0.180177,0 0.440434,-0.1001 0.260256,-0.0801 0.520513,-0.0801 0.260256,0 0.380374,0.16016 0.120119,0.18018 0.200198,0.38038 0.140138,0.32031 0.140138,0.86084 0,0.92091 -0.400395,2.66263 -0.08008,0.42041 -0.08008,0.56055 0,0.38037 0.200198,0.62061 0.220217,0.24024 0.520513,0.24024 0.280276,0 0.400394,-0.16016 0.140138,-0.14014 0.200197,-0.52051 0,-0.34034 -0.240236,-0.86085 -0.240237,-0.70069 -0.240237,-1.18116 0,-0.48048 0.100098,-0.86085 0.120119,-0.38038 0.340336,-0.88087 l 0.280276,-0.76075 q 0.140138,-0.22022 0.200197,-0.54053 0.02002,-0.16016 0.160158,-0.44044 0.160158,-0.26025 0.380375,-0.50049 0.220217,-0.24024 0.460454,-0.24024 0.140138,0 0.260256,0.14014 0.140138,0.14014 0.240237,0.52051 0.160158,0.52052 0.200197,0.88087 0.04004,0.36036 0.04004,0.82081 l 0.02002,0.50049 q -0.06006,1.46144 -0.180177,2.56253 -0.120119,1.10108 -0.380375,2.78274 l -0.280276,1.8218 q -0.06006,0.46045 -0.06006,0.86084 0,1.16115 0.380374,1.70168 0.400395,0.56055 0.920908,0.56055 z"
         id="path27292" />
      <path
         d="m 86.443013,121.51137 q 0.920908,-0.12012 1.041026,-1.88185 0,-0.62062 -0.200197,-1.4214 -0.300296,-1.14113 -0.440434,-1.78176 -0.140138,-0.64063 -0.200198,-1.2212 -0.04004,-0.58058 -0.06006,-1.50148 0.06006,-2.44241 1.101085,-6.42634 0.280276,-1.08106 0.520513,-1.64161 h 0.02002 q 0,-0.0601 0,-0.0601 0.02002,0 0.02002,-0.02 l -0.02002,-0.02 V 75.526058 h -7.967851 v 30.089652 l -0.06006,0.18017 q -0.100098,0.34034 -0.100098,0.6006 0,0.40039 0.180177,0.50049 0.200198,0.1001 0.320316,0.16016 0.120118,0.0601 0.200197,0.1001 0.08008,0.0601 0.08008,0.16015 0,0.1001 -0.04004,0.24024 -0.02002,0.16016 -0.06006,0.58057 0,0.28028 0.08008,0.36036 0.100099,0.1001 0.240237,0.1001 0.220217,0 0.480474,-0.12012 0.280276,-0.1001 0.500493,-0.1001 0.380375,0 0.600592,0.62061 0.140138,0.38038 0.140138,0.94093 0,0.62061 -0.100099,1.26124 -0.100099,0.64063 -0.260256,1.4214 -0.140139,0.78077 -0.140139,0.96095 0,0.48047 0.240237,0.72071 0.240237,0.24024 0.500493,0.24024 0.320316,0 0.440434,-0.18018 0.140138,-0.16016 0.180178,-0.58057 0,-0.38038 -0.220217,-0.92091 -0.280276,-0.74073 -0.280276,-1.38136 0,-0.76075 0.320315,-1.58156 l 0.560553,-1.58156 q 0.04004,-0.36035 0.440434,-1.06105 0.360355,-0.52051 0.660651,-0.52051 0.360355,0.04 0.560552,0.94093 0.200197,0.90089 0.200197,2.16213 0,1.4214 -0.160158,2.90286 -0.160157,1.48146 -0.420414,3.38333 l -0.260256,1.86184 q -0.08008,0.56055 -0.08008,1.021 0,1.30129 0.420414,1.90188 0.440434,0.60059 0.900888,0.60059 z m 1.781756,-46.726042 v -5.225149 h -7.967851 v 5.225149 z"
         id="path27294" />
      <path
         d="m 105.48178,119.78967 q 0.9209,-0.12011 1.021,-1.74171 0,-0.52052 -0.2002,-1.20119 -0.70069,-2.48244 -0.70069,-4.32426 0.02,-0.86085 0.22022,-1.74171 0.3003,-1.50148 1.08107,-4.16411 0.36035,-1.28126 0.36035,-1.46144 0,-0.0601 0.0801,-0.20019 l -0.02,-0.04 3.82377,-11.511346 5.84576,-17.837577 -8.34823,-0.02002 -5.32525,16.095861 -5.345262,-16.11588 h -0.380375 q 0,-0.06006 -0.02002,-0.100099 -0.160158,-0.280276 -3.243195,-0.280276 -1.161145,0 -2.342308,0.06006 -1.161145,0.04004 -1.941914,0.140138 -0.780769,0.08008 -0.780769,0.180178 v 0.02002 q 0.220217,0.520513 0.480473,1.581559 0.260257,1.061045 0.480474,2.18215 0.220217,1.121105 0.340335,1.821795 0.220217,1.101085 0.220217,2.22219 0,1.881854 -0.800789,4.824754 -0.220217,0.840828 -0.220217,1.46144 0.120118,1.861835 1.121105,1.861835 0.840828,0 1.281262,-1.601579 0.220217,1.041026 0.520513,1.46144 0.04004,0.06006 0.04004,0.160158 l -0.08008,0.980967 q 0,0.540533 0.300296,0.540533 0.180178,0 0.460454,-0.120119 0.280276,-0.140138 0.520513,-0.140138 0.260256,0 0.380375,0.240237 0.140138,0.240237 0.220217,0.520513 0.100098,0.260256 0.120118,0.520513 0.02002,0.240236 0.02002,0.600591 0,0.680671 -0.100099,1.401381 l -0.260256,1.881855 q -0.140138,0.820808 -0.140138,1.061045 0,0.580572 0.240236,0.860848 0.240237,0.300293 0.500494,0.300293 0.320315,-0.02 0.440434,-0.220214 0.120118,-0.200197 0.160157,-0.68067 0,-0.480474 -0.220217,-1.141125 -0.260256,-0.900888 -0.260256,-1.621598 0,-0.920907 0.180178,-1.4214 0.180177,-0.480474 0.300295,-0.500494 0.100099,2.322289 0.400395,4.584518 0.320316,2.282243 0.820809,3.042993 0.04004,0.0601 0.04004,0.14014 0,0.12012 -0.04004,0.3003 -0.02002,0.20019 -0.06006,0.68067 0,0.36035 0.08008,0.46045 0.100099,0.1001 0.240237,0.1001 0.180178,0 0.440434,-0.14014 0.260257,-0.12012 0.520513,-0.12012 0.140138,0 0.260257,0.0601 0.300295,0.38038 0.380374,0.84083 0.100099,0.46046 0.120119,1.08107 0,0.90088 -0.440434,3.60355 -0.06006,0.44043 -0.06006,0.66065 0,0.62061 0.220217,0.88087 0.240236,0.26025 0.500493,0.26025 0.320315,-0.02 0.440434,-0.22021 0.140138,-0.2002 0.180177,-0.68067 0,-0.48048 -0.220217,-1.14113 -0.240236,-0.92091 -0.280276,-1.6216 0,-0.48047 0.08008,-0.96094 0.100099,-0.48048 0.200197,-0.70069 v 0.0801 q 0,0.62062 0.660651,1.26125 0.04004,0.04 0.04004,0.14014 0,0.10009 -0.04004,0.24023 -0.02002,0.16016 -0.04004,0.48048 0,0.38037 0.300299,0.38037 0.18017,0 0.44043,-0.1001 0.26026,-0.0801 0.52051,-0.0801 0.26026,0 0.38038,0.16016 0.12012,0.18018 0.2002,0.38038 0.14013,0.32031 0.14013,0.86084 0,0.92091 -0.40039,2.66263 -0.0801,0.42041 -0.0801,0.56055 0,0.38037 0.2002,0.62061 0.22021,0.24024 0.52051,0.24024 0.28028,0 0.4004,-0.16016 0.14013,-0.14014 0.20019,-0.52051 0,-0.34034 -0.24023,-0.86085 -0.24024,-0.70069 -0.24024,-1.18116 0,-0.48048 0.1001,-0.86085 0.12012,-0.38038 0.34033,-0.88087 l 0.28028,-0.76075 q 0.14014,-0.22022 0.2002,-0.54053 0.02,-0.16016 0.16015,-0.44044 0.16016,-0.26025 0.38038,-0.50049 0.22022,-0.24024 0.46045,-0.24024 0.14014,0 0.26026,0.14014 0.14014,0.14014 0.24024,0.52051 0.16015,0.52052 0.20019,0.88087 0.04,0.36036 0.04,0.82081 l 0.02,0.50049 q -0.0601,1.46144 -0.18018,2.56253 -0.12011,1.10108 -0.38037,2.78274 l -0.28028,1.8218 q -0.0601,0.46045 -0.0601,0.86084 0,1.16115 0.38038,1.70168 0.40039,0.56055 0.92091,0.56055 z"
         id="path27296" />
      <path
         d="m 124.94095,97.607816 q -0.94093,-0.04004 -1.76174,-1.561538 -0.80078,-1.5215 -0.98096,-4.40434 l -0.02,-1.201184 q 0.14014,-3.743689 1.40138,-5.625543 l 0.04,-0.04004 q 0.24023,-0.08008 0.40039,-0.08008 0.34034,0 0.34034,0.380375 0,0.340336 -0.02,0.540533 -0.02,0.200197 -0.18018,0.800789 0,0.660651 0.36036,0.660651 0.16015,0 0.22021,-0.08008 0.0801,-0.100099 0.1001,-0.300296 0,-0.180177 -0.1001,-0.420414 -0.16015,-0.480474 -0.16015,-0.76075 0,-0.280276 0.10009,-0.660651 0.1001,-0.380375 0.24024,-0.640631 0.16016,-0.280276 0.34034,-0.280276 0.18017,0.02002 0.28027,0.460454 0.12012,0.420414 0.12012,1.081065 l -0.02,0.960947 q -0.02,0.360355 -0.18018,1.46144 l -0.12012,1.021006 q -0.0801,0.340335 -0.14013,1.261243 0,0.640631 0.20019,0.960946 0.2002,0.300296 0.46046,0.300296 0.50049,-0.02002 0.60059,-0.840828 0,-0.680671 -0.26026,-1.641618 -0.14014,-0.580572 -0.20019,-1.061045 0,-0.72071 0.02,-1.141125 0.04,-0.420414 0.14013,-0.880868 0.12012,-0.480473 0.34034,-1.321302 l 0.14014,-0.560552 0.04,-0.100099 q 1.46144,1.581559 1.54152,5.645563 0,2.001973 -0.4004,3.783729 -0.40039,1.761736 -1.16114,2.9429 -0.86085,1.341321 -1.7217,1.341321 z m 3.38333,31.090634 q 1.7217,-0.14014 1.80178,-2.96292 0,-0.96094 -0.3003,-2.22219 -1.1211,-4.3643 -1.1211,-7.12702 0.02,-2.04201 0.42041,-4.04398 0.42042,-2.00198 1.26125,-5.26519 0.14013,-0.44044 0.28027,-1.06105 0.58057,-1.94191 0.68067,-3.043 0.16016,0 0.2002,0.12012 0.04,0.12012 0.04,0.28028 -0.04,0.44043 -0.0801,0.62061 -0.0801,0.3003 -0.14014,0.86085 0,0.26025 0.14014,0.36035 0.14014,0.12012 0.28028,0.12012 0.22021,-0.04 0.26025,-0.40039 0,-0.26026 -0.14013,-0.6006 -0.0601,-0.10009 -0.0601,-0.20019 -0.04,-0.2002 -0.04,-0.36036 0,-0.24023 0.0801,-0.62061 0.10009,-0.38037 0.24023,-0.68067 0.14014,-0.3003 0.34034,-0.3003 0.38037,0.04 0.42041,1.54152 -0.0801,1.38136 -0.1001,1.54152 -0.02,0.16016 -0.0601,0.42042 -0.02,0.28027 -0.14013,1.04102 -0.1001,0.76075 -0.18018,1.68166 0,0.64063 0.22022,0.96095 0.22021,0.32031 0.46045,0.32031 0.52051,0 0.58057,-0.96095 0,-0.58057 -0.22022,-1.3213 -0.22021,-0.72071 -0.22021,-1.26124 l -0.02,-0.60059 q 0,-0.54053 0.12012,-1.06105 v -0.0601 q 0.26025,-1.04102 0.38037,-1.64161 l 0.42041,-2.28225 q 0.24024,-1.601581 0.54054,-2.482449 0.66065,-1.601578 1.08106,-3.723669 0.42042,-2.122091 0.42042,-4.484419 0,-6.366273 -2.88284,-10.370219 -1.56154,-2.082051 -3.5435,-3.063018 -1.98195,-1.000986 -4.12406,-1.000986 -2.7427,0 -5.32525,1.681657 -2.58254,1.661637 -4.2642,4.984912 -1.66164,3.323274 -1.78175,8.288167 l -0.02,0.74073 q 0.18017,6.766667 3.02298,10.410254 0.8208,1.10109 1.74171,1.88186 -0.44043,1.08106 -0.44043,1.68165 0,0.64064 0.34033,0.82081 0.34034,0.18018 0.54054,0.26026 0.20019,0.1001 0.28027,0.16016 0.0801,0.0801 0.0801,0.22021 0,0.16016 -0.0601,0.4004 -0.04,0.26026 -0.1001,0.88087 0,0.70069 0.5005,0.70069 0.32031,0 0.74073,-0.18018 0.42041,-0.16016 0.78076,-0.16016 0.22022,0 0.4004,0.1001 0.46045,0.52051 0.60059,1.08107 0.16016,0.58057 0.18018,1.38136 0,0.88087 -0.14014,1.58156 l -0.1001,0.72071 -0.34033,1.76173 q -0.22022,1.24123 -0.22022,1.54152 0,0.72071 0.38037,1.10109 0.38038,0.38037 0.76075,0.38037 0.4004,-0.02 0.68067,-0.3003 0.3003,-0.26025 0.3003,-0.88086 0,-0.62061 -0.38037,-1.58156 l -0.22022,-0.74073 q -0.16016,-0.74073 -0.16016,-1.46144 0,-0.90089 0.50049,-2.30227 l 0.66066,-1.88185 q 0.22021,-0.42042 0.30029,-0.96095 0.04,-0.26026 0.3003,-0.76075 0.68067,-1.34132 1.3213,-1.34132 0.48047,0 0.82081,1.16114 0.40039,1.66164 0.40039,3.66361 0,2.7427 -0.86085,9.20908 l -0.48047,3.58353 q -0.1001,0.86085 -0.1001,1.56154 0,1.34132 0.3003,2.20217 0.30029,0.88086 0.78077,1.30128 0.48047,0.44043 0.98096,0.44043 z"
         id="path27298" />
      <path
         d="m 143.29905,119.78967 q 0.94092,-0.12011 1.04102,-1.74171 0,-0.52052 -0.2002,-1.20119 -0.72071,-2.50246 -0.72071,-4.32426 0.04,-1.04102 0.24024,-1.98195 0.22022,-0.94093 0.60059,-2.24221 l 0.4004,-1.38136 0.36035,-1.28126 h 0.1001 v -0.54054 l 0.0801,-0.14013 q 0,-0.04 -0.0801,-0.0601 v -4.34428 q 0.46045,0 0.82081,-0.38038 0.38037,-0.380374 0.42041,-1.301281 0,-0.640631 -0.42041,-2.22219 -0.22022,-0.74073 -0.34034,-1.381361 -0.04,-0.380375 -0.0801,-0.560552 l -0.04,-0.420414 q 0,-0.420415 -0.02,-0.700691 0.02,-1.101085 0.20019,-1.981953 0.18018,-0.900888 0.52052,-2.18215 l 0.52051,-1.781756 q 0,0.72071 -0.0601,1.161144 -0.0601,0.420415 -0.2002,1.021007 -0.24023,0.960946 -0.24023,1.281262 0,0.420414 0.24023,0.640631 0.24024,0.220217 0.5005,0.220217 0.30029,-0.02002 0.42041,-0.180177 0.14014,-0.180178 0.18018,-0.500493 0,-0.180178 -0.0801,-0.420415 -0.0801,-0.240236 -0.16016,-0.480473 -0.0801,-0.240237 -0.16016,-0.440434 -0.0601,-0.220217 -0.0801,-0.400395 0,-0.200197 0,-0.420414 0,-0.340335 0.1001,-0.660651 0.12012,-0.420414 0.62061,-1.721696 0.16016,-0.220217 0.22022,-0.540533 0.02,-0.160158 0.16016,-0.440434 0.16016,-0.280276 0.38037,-0.520513 0.24024,-0.240237 0.46046,-0.240237 0.38037,0.06006 0.58057,0.880868 0.2002,0.820809 0.2002,1.881855 0,1.301282 -0.2002,2.802761 -0.18018,1.50148 -0.48047,3.343295 l -0.16016,1.121104 -0.02,0.120119 q -0.0601,0.420414 -0.0601,0.800789 0,1.141124 0.42041,1.681657 0.44044,0.540533 0.92091,0.540533 1.06105,-0.04004 1.14113,-1.741717 0,-0.660651 -0.42042,-2.18215 -0.50049,-1.641617 -0.50049,-3.343294 0.04,-0.860848 0.22022,-1.681657 0.0601,-0.300296 0.52051,-2.162131 0.30029,-0.800789 1.86183,-2.90286 l 0.04,0.260256 q 0,0.360355 -0.02,0.560553 0,0.200197 -0.12012,0.960947 l -0.02,0.08008 q -0.34033,1.681657 -0.34033,1.861835 0,0.440434 0.24024,0.660651 0.26025,0.200197 0.50049,0.200197 0.32031,-0.02002 0.44043,-0.180177 0.12012,-0.180178 0.16016,-0.500493 0,-0.180178 -0.0801,-0.420415 l -0.30029,-0.900887 q -0.1001,-0.460454 -0.1001,-0.840829 0,-0.280276 0.0601,-0.500493 0.18017,-0.820809 0.46045,-0.820809 0.04,-0.02002 0.0601,-0.02002 0.04,-0.02002 0.0601,-0.06006 0.1001,-0.160158 0.14014,-0.360355 0.0601,-0.320316 0.44043,-0.920907 0.4004,-0.460454 0.64063,-0.460454 0.60059,0 0.76075,1.961933 0,0.280276 0.0601,0.400395 l 0.02,0.160158 q -0.0601,0.920907 -0.22022,2.462426 l -0.20019,1.401381 q -0.46046,2.762722 -0.46046,3.543491 0,1.161145 0.4004,1.721697 0.42041,0.540533 0.9209,0.540533 1.06105,-0.04004 1.14113,-1.781756 0,-0.520513 -0.2002,-1.161144 -0.30029,-1.021006 -0.44043,-1.581559 -0.14014,-0.580572 -0.2002,-1.081065 -0.04,-0.520513 -0.0601,-1.361341 0.02,-1.081066 0.12012,-1.681657 0.1001,-0.600592 0.36035,-1.50148 0.52052,-2.122091 0.80079,-2.862821 l 0.24024,-0.820809 q 0.16016,-0.600591 0.16016,-0.880868 l 0.0801,-0.06006 -0.02,-0.04004 0.02,-0.04004 q 0,-0.04004 -0.1001,-0.06006 -1.70168,-2.322288 -4.20414,-3.483432 -2.48245,-1.161145 -5.28521,-1.161145 -1.9219,0 -3.86381,0.560553 v -0.420414 h -7.96785 v 29.629194 q -0.14014,0.32032 -0.14014,0.62061 0,0.6006 0.70069,1.26125 0.04,0.04 0.04,0.1001 0,0.12011 -0.04,0.26025 -0.02,0.16016 -0.0601,0.48048 0,0.40039 0.26026,0.40039 0.24024,0 0.50049,-0.1001 0.26026,-0.0801 0.54054,-0.0801 0.38037,0 0.54053,0.36036 0.16016,0.38037 0.18018,0.80079 l 0.02,0.32031 q 0,0.80079 -0.34034,2.18215 l -0.14014,0.68067 -0.02,0.28028 q 0,0.84083 0.72071,0.86085 0.3003,0 0.42042,-0.16016 0.14013,-0.14014 0.20019,-0.52051 0,-0.18018 -0.0801,-0.42042 -0.0801,-0.24023 -0.16015,-0.50049 -0.26026,-0.72071 -0.26026,-1.1211 0,-0.42042 0.1001,-0.80079 0.12012,-0.36036 0.32031,-0.84083 l 0.32032,-0.86085 q 0.16016,-0.22022 0.2002,-0.54053 0.02,-0.16016 0.18018,-0.44044 0.16015,-0.26025 0.38037,-0.50049 0.24024,-0.24024 0.46045,-0.24024 0.74073,0.0601 0.78077,2.62259 0,1.3213 -0.14014,2.40236 -0.12011,1.10109 -0.38037,2.82279 -0.40039,2.62258 -0.40039,3.08303 0,1.10109 0.40039,1.66164 0.42041,0.56055 0.94093,0.56055 z"
         id="path27300" />
      <path
         d="m 170.72606,125.81561 q 1.38136,-0.04 1.54152,-2.5425 0,-0.78077 -0.26025,-1.80178 -0.94093,-3.34329 -0.94093,-5.92584 0.02,-1.6216 0.26025,-2.96292 0.26026,-1.3213 0.74073,-3.16311 l 0.54054,-2.22219 q 0.24023,-0.80079 0.52051,-2.04202 0.16016,0.0601 0.28028,0.0601 0.32031,0 0.72071,-0.34033 0.20019,-0.2002 0.34033,-0.2002 0.48048,0 0.52051,4.34428 0,2.22219 -1.62159,8.70858 -0.34034,1.30128 -0.34034,2.08205 0,1.04103 0.38038,1.56154 0.40039,0.52051 0.90088,0.52051 0.54054,-0.02 0.94093,-0.56055 0.42042,-0.52051 0.42042,-1.6216 0,-0.44043 -0.1001,-0.9209 -0.22022,-1.10109 -0.22022,-2.54251 0.0801,-3.94388 0.52051,-8.3282 0.44044,-4.38432 1.3213,-8.248132 0.1001,-0.340335 0.16016,-0.660651 0.0601,-0.320316 0.18018,-0.680671 v -0.02002 h -0.02 q 0.0801,-0.560553 0.12012,-1.281263 l 0.02,-0.260256 q 0,-1.341322 -0.50049,-2.782742 -0.5005,-1.441421 -1.60158,-2.822782 -1.10109,-1.381361 -2.90286,-2.602564 -1.02101,-0.700691 -2.30227,-1.441421 l -0.22022,-0.140138 q -0.48047,-0.260256 -1.30128,-0.780769 -0.82081,-0.540533 -1.5215,-1.101085 -0.68067,-0.560552 -0.68067,-0.920907 0,-0.300296 0.40039,-0.440434 0.42042,-0.140139 1.24123,-0.200198 1.98195,0 4.12406,1.881855 l 5.34527,-5.8858 q -4.4644,-3.923867 -9.48935,-3.923867 -2.50247,0 -4.70464,1.081066 -2.20217,1.061045 -3.56351,2.982939 -1.36134,1.921894 -1.36134,4.444379 0,1.961934 0.80079,3.603551 1.58156,3.243196 6.38629,5.925839 1.14112,0.680671 2.38235,1.5215 1.5215,1.021006 1.5215,1.821795 0,0.380375 -0.42042,0.540532 -0.40039,0.180178 -0.96094,0.180178 -2.26223,-0.140138 -3.00296,-1.401381 -2.54251,1.281263 -3.56351,1.821795 l -3.5435,1.781756 q 0.0601,0.100096 0.0801,0.160156 0.02,0.0601 0.14014,0.24024 0.38038,0.62061 0.54053,2.00197 0.14014,1.08107 0.3003,1.26124 l 0.02,0.0801 -0.04,0.2002 v 0.18018 q 0.02,0.16016 0.02,0.18018 0,0.04 0.0801,0.0801 0.14014,0 0.26025,-0.0601 0.14014,-0.0601 0.28028,-0.0601 0.16016,0.04 0.2002,0.1001 0.0601,0.0801 0.1001,0.20019 0.0601,0.14014 0.0601,0.22022 0.02,0.0801 0.02,0.16016 0,0.1001 0.02,0.20019 l -0.02,0.14014 q -0.02,0.28028 -0.0601,0.46046 -0.02,0.18017 -0.18018,1.021 0,0.66065 0.38037,0.66065 0.26026,0 0.3003,-0.40039 0,-0.26026 -0.14014,-0.60059 -0.0601,-0.1001 -0.0601,-0.2002 -0.04,-0.2002 -0.04,-0.36036 0,-0.28027 0.04,-0.42041 0.04,-0.14014 0.12012,-0.40039 l 0.22022,-0.62062 q 0.02,-0.0601 0.04,-0.20019 0.04,-0.14014 0.12012,-0.36036 0.0801,-0.2002 0.32031,-0.38037 l 0.38038,0.26025 q 0.02,0.02 0.02,0.0801 0.10009,0.36036 0.14013,1.06105 0,1.10108 -0.12011,2.18215 -0.1001,1.08106 -0.22022,2.20217 -0.3003,2.22219 -0.38038,4.24418 0,1.58156 0.70069,1.58156 0.22022,0 0.38038,-0.2002 0.22022,-0.26025 0.22022,-1.2212 -0.04,-1.12111 -0.16016,-2.28225 l -0.1001,-1.14113 q -0.1001,-0.86084 -0.1001,-1.86183 0,-1.02101 0.2002,-2.40237 v 0.36036 q 0,1.44142 0.34033,1.44142 0.1001,0 0.2002,-0.1001 0.12012,-0.1001 0.22022,-0.22022 0.12012,-0.12012 0.22021,-0.22021 0.12012,-0.1001 0.2002,-0.1001 0.14014,0.0601 0.14014,0.20019 0,0.12012 -0.04,0.32032 -0.04,0.22022 -0.0801,0.72071 0,0.40039 0.1001,0.52051 0.12012,0.12012 0.3003,0.12012 0.24023,0 0.58057,-0.14014 0.36035,-0.14013 0.72071,-0.14013 0.32031,0 0.48047,0.22021 0.18018,0.24024 0.28028,0.56055 0.02,0 0.02,0.02 0.12012,0.3003 0.14014,0.56056 0.04,0.26025 0.04,0.64063 0,0.76075 -0.12012,1.5215 -0.12012,0.78077 -0.3003,1.78175 -0.18018,0.88087 -0.24024,1.48146 0,0.62061 0.3003,0.94093 0.3003,0.32032 0.68067,0.32032 0.3003,0 0.54053,-0.24024 0.24024,-0.22022 0.24024,-0.78077 0,-0.50049 -0.26026,-1.14112 -0.34033,-0.98097 -0.38037,-1.84182 0,-0.96095 0.42041,-2.08205 l 0.56056,-1.56154 q 0.20019,-0.36036 0.26025,-0.82081 0.04,-0.22022 0.24024,-0.64063 0.54053,-1.10109 1.14112,-1.10109 0.4004,0 0.66065,0.98097 0.32032,1.34132 0.32032,3.00296 0,1.46144 -0.12012,2.7427 -0.12012,1.30129 -0.36035,3.16312 l -0.62062,4.82475 q -0.10009,0.70069 -0.10009,1.30129 0,1.66163 0.54053,2.48244 0.54053,0.82081 1.16114,0.82081 z"
         id="path27302" />
    </g>
  </g>
</svg>
